<?xml version="1.0" encoding="UTF-8"?>
<svg id="a" xmlns="http://www.w3.org/2000/svg" version="1.1" viewBox="0 0 555 285">
  <!-- Generator: Adobe Illustrator 29.2.1, SVG Export Plug-In . SVG Version: 2.1.0 Build 116)  -->
  <defs>
    <style>
      .st0 {
        fill: #fff;
      }

      .st1 {
        fill: #fdb61a;
      }
    </style>
  </defs>
  <path class="st0" d="M263.4,55.1c5.8,6.8,8.6,17.2,8.6,30.8v58.8h-29.9v-57.4c0-6.7-1.2-11.4-3.7-14.5-2.4-3-6.3-4.6-11.4-4.6s-11.2,1.9-15.1,5.9c-3.9,4-5.6,9.3-5.6,15.9v54.6h-29.9V47.4h29.1v13.8c3.5-5.2,7.9-9.3,13.5-12.1,5.4-2.8,11.7-4.2,18.6-4.2,11.6,0,20.3,3.5,25.9,10.2"/>
  <path class="st0" d="M304.9,143.3c-7.5-2.1-14-5.1-19.4-8.8l7.9-20.7c5.2,3.5,11.2,6.3,17.5,8.4,6.3,1.9,12.8,3,19.2,3s8.2-.7,10.9-2.3,3.9-3.7,3.9-6.3-.9-4.2-2.6-5.6-5.1-2.4-10-3.5l-15.9-3.5c-9.5-2.1-16.3-5.4-20.8-9.8-4.4-4.4-6.6-10.5-6.6-18.2s1.8-11.4,5.2-16.1c3.5-4.5,8.4-8.2,14.9-10.8s13.6-4,21.9-4,13.8,1,20.5,3.2c6.6,2.1,12.6,5.1,17.9,8.9l-7.9,19.8c-10.3-7.2-20.5-10.7-30.6-10.7s-8.2.9-10.9,2.4c-2.6,1.6-4,3.8-4,6.8s.9,3.8,2.5,4.9c1.6,1.2,4.4,2.3,8.4,3.3l16.5,3.8c10,2.3,17.1,5.6,21.7,10.2,4.5,4.6,6.8,10.7,6.8,18.6s-3.7,16.8-11.2,22.1c-7.5,5.4-17.9,8.1-30.8,8.1s-17.1-1.1-24.7-3.1"/>
  <path class="st0" d="M483.9,143.3c-7.5-2.1-14-5.1-19.4-8.8l7.9-20.7c5.2,3.5,11.2,6.3,17.5,8.4,6.3,1.9,12.8,3,19.2,3s8.2-.7,10.8-2.3,3.8-3.7,3.8-6.3-.9-4.2-2.6-5.6-5.1-2.4-10-3.5l-15.9-3.5c-9.5-2.1-16.3-5.4-20.8-9.8-4.4-4.4-6.6-10.5-6.6-18.2s1.8-11.4,5.2-16.1c3.5-4.5,8.4-8.2,14.9-10.8s13.6-4,21.9-4,13.8,1,20.5,3.2c6.7,2.1,12.6,5.1,17.8,8.9l-7.9,19.8c-10.3-7.2-20.5-10.7-30.6-10.7s-8.2.9-10.9,2.4c-2.6,1.6-4,3.8-4,6.8s.9,3.8,2.5,4.9c1.6,1.2,4.4,2.3,8.4,3.3l16.4,3.8c10,2.3,17.2,5.6,21.7,10.2s6.8,10.7,6.8,18.6-3.7,16.8-11.2,22.1c-7.5,5.4-17.8,8.1-30.8,8.1s-17.1-1.1-24.7-3.1"/>
  <polygon class="st1" points="63.9 4.5 4.4 144.7 45 144.7 102.4 4.5 63.9 4.5"/>
  <polygon class="st0" points="109.4 9.1 90.2 56.1 126.4 144.7 167.2 144.7 109.4 9.1"/>
  <polygon class="st0" points="467 47.4 420.2 156.2 390.7 156.2 406.8 118.7 373.8 47.4 403.4 47.4 421.6 84.2 437.4 47.4 467 47.4"/>
  <path class="st0" d="M184.5,205.5c0-2.6-1.3-4.6-7.1-4.6s-7.1,1.9-7.1,4.6v7.1c0,2.1.7,4.3,2.8,6.1l19.5,16.7c2.8,2.3,4.5,5.2,4.5,8.2v10.6c0,6.3-7.4,9.9-19.7,9.9s-20.1-3.1-20.1-9.9v-9.2h12.3v8.8c0,3.2,2.4,5,7.8,5s7.4-1.9,7.4-5v-9.4c0-2.3-.9-4.1-3.5-6.4l-18.1-15.7c-3.3-2.9-5.2-5.1-5.2-8.6v-8.1c0-6.6,6.9-9.9,19.4-9.9s19.4,3.3,19.4,9.4v8.6h-12.3v-8.2h0s0,0,0,0Z"/>
  <path class="st0" d="M303,206.9c0-6.6,5-11.4,21.6-11.4s21.6,4.8,21.6,11.4v45.6c0,6.6-5,11.4-21.6,11.4s-21.6-4.8-21.6-11.4v-45.6h0ZM315.2,252.3c0,3.7,1.5,6.3,9.3,6.3s9.3-2.6,9.3-6.3v-45.2c0-3.7-1.5-6.3-9.3-6.3s-9.3,2.6-9.3,6.3v45.2Z"/>
  <path class="st0" d="M352.9,196.1h19.5c15.8,0,20.5,2.6,20.5,10.2v16.5c0,7.6-4.7,10.2-20.5,10.2h-7.3v30.2h-12.3v-67.2h0ZM371.2,227.9c5.6,0,9.5-.7,9.5-4.2v-18.1c0-3.4-3.9-4.2-9.5-4.2h-6v26.5h6Z"/>
  <path class="st0" d="M423.6,205.3c0-2.6-1.3-4.6-7.1-4.6s-7.1,1.9-7.1,4.6v7.1c0,2.1.7,4.3,2.8,6.1l19.5,16.7c2.8,2.3,4.5,5.2,4.5,8.2v10.6c0,6.3-7.4,9.9-19.7,9.9s-20.1-3.1-20.1-9.9v-9.2h12.3v8.9c0,3.2,2.4,5,7.8,5s7.4-1.9,7.4-5v-9.4c0-2.3-.9-4.1-3.5-6.4l-18.1-15.7c-3.3-2.9-5.2-5.1-5.2-8.6v-8.1c0-6.6,6.9-9.9,19.4-9.9s19.4,3.2,19.4,9.4v8.6h-12.3v-8.2h0,0Z"/>
  <path class="st0" d="M514.3,205.3c0-2.6-1.3-4.6-7.1-4.6s-7.1,1.9-7.1,4.6v7.1c0,2.1.7,4.3,2.8,6.1l19.5,16.8c2.8,2.3,4.5,5.2,4.5,8.2v10.6c0,6.3-7.5,9.9-19.7,9.9s-20.1-3.1-20.1-9.9v-9.2h12.3v8.9c0,3.2,2.4,5,7.8,5s7.4-1.9,7.4-5v-9.4c0-2.3-.9-4.1-3.5-6.4l-18.1-15.7c-3.3-2.9-5.2-5.1-5.2-8.6v-8.1c0-6.6,6.9-9.9,19.4-9.9s19.4,3.3,19.4,9.4v8.6h-12.3v-8.2h0Z"/>
  <polygon class="st0" points="235.1 196.1 247.4 196.1 220.5 280.5 208.2 280.5 235.1 196.1"/>
  <polygon class="st0" points="215.7 248.5 199.1 196.3 211.4 196.3 221.9 229.2 215.7 248.5"/>
  <polygon class="st0" points="474.2 196.1 486.5 196.1 459.6 280.5 447.2 280.5 474.2 196.1"/>
  <polygon class="st0" points="454.8 248.4 438.2 196.1 450.5 196.1 461 229.1 454.8 248.4"/>
  <path class="st0" d="M295.4,263.3h0v-56.9c0-7.6-4.6-10.2-20.5-10.2h-23.7v67.2h12.3v-62h10.1c5.6,0,9.5.7,9.5,4.2v57.8h12.2,0Z"/>
  <path class="st0" d="M531.7,204.4c0-4.5,3.6-7.8,8-7.8s7.9,3.3,7.9,7.8-3.6,7.8-7.9,7.8-8-3.3-8-7.8ZM539.7,211c3.5,0,6.3-2.8,6.3-6.5s-2.8-6.5-6.3-6.5-6.4,2.8-6.4,6.5,2.8,6.5,6.4,6.5ZM538,209h-1.4v-9h3.5c2.1,0,3.2.8,3.2,2.6s-1,2.3-2.3,2.5l2.6,4h-1.5l-2.4-3.9h-1.6v3.9h0ZM539.7,203.9c1.2,0,2.2,0,2.2-1.5s-1-1.3-2-1.3h-1.9v2.8h1.6Z"/>
  <path class="st0" d="M30.5,221.8c0,4.2-1,7.6-2.9,10.1-1.9,2.6-4.5,3.9-7.8,3.9s-6-1.1-7.9-3.2v13.3h-4.7v-38.2h4.3l.2,3.1c1.9-2.4,4.6-3.6,8-3.6s5.9,1.2,7.9,3.8c1.9,2.5,2.9,6,2.9,10.4v.4h0ZM25.8,221.3c0-3.1-.7-5.6-2-7.4-1.3-1.8-3.1-2.7-5.4-2.7s-5,1.3-6.4,3.8v13.2c1.4,2.5,3.6,3.8,6.5,3.8s4.1-.9,5.4-2.7c1.3-1.8,2-4.4,2-8h0Z"/>
  <path class="st0" d="M49.9,235.3c-.3-.5-.5-1.5-.7-2.9-2.2,2.3-4.8,3.4-7.8,3.4s-5-.8-6.7-2.3c-1.8-1.5-2.6-3.5-2.6-5.8s1.1-5.1,3.3-6.7c2.2-1.6,5.2-2.4,9.2-2.4h4.6v-2.2c0-1.6-.5-3-1.5-3.9-1-1-2.4-1.5-4.3-1.5s-3.1.4-4.2,1.3c-1.1.8-1.7,1.9-1.7,3.1h-4.7c0-1.4.5-2.7,1.5-4,1-1.3,2.3-2.3,4-3.1,1.7-.7,3.5-1.1,5.5-1.1,3.2,0,5.7.8,7.5,2.4,1.8,1.6,2.7,3.8,2.8,6.6v12.7c0,2.5.3,4.5,1,6v.4h-5ZM42.1,231.7c1.5,0,2.9-.4,4.2-1.1s2.3-1.8,2.9-3v-5.6h-3.7c-5.8,0-8.7,1.7-8.7,5.1s.5,2.6,1.5,3.5c1,.8,2.2,1.2,3.8,1.2h0Z"/>
  <path class="st0" d="M70.5,211.9c-.7-.1-1.5-.2-2.3-.2-3.1,0-5.2,1.3-6.3,3.9v19.6h-4.7v-27.6h4.6v3.2c1.6-2.5,3.8-3.7,6.6-3.7s1.6.1,2.1.4v4.4h0Z"/>
  <path class="st0" d="M83.1,201.1v6.7h5.1v3.6h-5.1v17.1c0,1.1.2,1.9.7,2.5.5.6,1.2.8,2.3.8s1.3-.1,2.2-.3v3.8c-1.2.3-2.4.5-3.6.5-2.1,0-3.7-.6-4.8-1.9-1.1-1.3-1.6-3.1-1.6-5.4v-17.1h-5v-3.6h5v-6.7h4.7,0Z"/>
  <path class="st0" d="M98.1,221.2c0-2.7.5-5.1,1.6-7.3,1.1-2.2,2.5-3.8,4.4-5,1.9-1.2,4.1-1.8,6.5-1.8,3.8,0,6.8,1.3,9.1,3.9s3.5,6.1,3.5,10.4v.3c0,2.7-.5,5.1-1.6,7.2-1,2.1-2.5,3.8-4.4,5-1.9,1.2-4.1,1.8-6.6,1.8-3.7,0-6.8-1.3-9.1-3.9-2.3-2.6-3.5-6-3.5-10.3v-.3h0ZM102.8,221.8c0,3.1.7,5.5,2.1,7.4,1.4,1.9,3.3,2.8,5.7,2.8s4.3-.9,5.7-2.8c1.4-1.9,2.1-4.5,2.1-7.9s-.7-5.5-2.2-7.3c-1.4-1.9-3.3-2.8-5.7-2.8s-4.2.9-5.6,2.8c-1.4,1.9-2.1,4.5-2.1,7.9h0Z"/>
  <path class="st0" d="M129.3,235.3v-23.9h-4.3v-3.6h4.3v-2.8c0-2.9.8-5.2,2.4-6.9s3.8-2.4,6.7-2.4,2.2.1,3.2.4l-.3,3.8c-.8-.2-1.6-.2-2.6-.2-1.5,0-2.7.4-3.5,1.4-.8.9-1.2,2.2-1.2,3.9v2.9h5.9v3.6h-5.9v23.9h-4.7,0Z"/>
  <path class="st0" d="M7.2,156.2h379.7l.7-1.6H7.2v1.6ZM424.8,154.6l-.7,1.6h121.6v-1.6h-120.9Z"/>
</svg>